<?xml version="1.0" encoding="UTF-8"?>
<svg id="_レイヤー_1" data-name="レイヤー 1" xmlns="http://www.w3.org/2000/svg" viewBox="0 0 233.06 127.38">
  <defs>
    <style>
      .cls-1 {
        fill: #1d2087;
      }

      .cls-2 {
        fill: #2b2e9e;
        font-size: 24.98px;
      }

      .cls-2, .cls-3 {
        font-family: NotoSansJP-Bold, 'Noto Sans JP';
        font-variation-settings: 'wght' 700;
        font-weight: 700;
      }

      .cls-3 {
        fill: #666;
        font-size: 9.08px;
      }

      .cls-4 {
        fill: #7db7e4;
      }

      .cls-5 {
        fill: #999a9a;
      }
    </style>
  </defs>
  <g>
    <path class="cls-4" d="M19.2,33.98c2.43,2.92,1.99,7.21-.99,9.59s-7.37,1.95-9.8-.97c-2.43-2.92-1.99-7.21.99-9.59s7.37-1.95,9.8.97Z"/>
    <path class="cls-4" d="M2.36,48.3c1.64.28,3.89.55,6.37.53,8.46-.07,19.5-3.59,17.27-22.1,0,0,1.99,25.43,13.23,38.33l-5.11,4.08S.73,48.02,2.36,48.3Z"/>
    <path class="cls-5" d="M78.67,33.98c-2.43,2.92-1.99,7.21.99,9.59s7.37,1.95,9.8-.97c2.43-2.92,1.99-7.21-.99-9.59-2.98-2.38-7.37-1.95-9.8.97Z"/>
    <path class="cls-5" d="M95.5,48.3c-1.64.28-3.89.55-6.37.53-8.46-.07-19.5-3.59-17.27-22.1,0,0-1.99,25.43-13.23,38.33l5.11,4.08s33.39-21.12,31.76-20.84Z"/>
    <ellipse class="cls-1" cx="48.93" cy="26.73" rx="7.28" ry="7.12"/>
    <path class="cls-1" d="M26,26.73s23.92,24.17,45.86,0c0,0-20.12,20.3-19.63,36.74h-8.91s-.49-19.82-17.32-36.74Z"/>
  </g>
  <text class="cls-2" transform="translate(103.05 51.42)"><tspan x="0" y="0">NASC</tspan></text>
  <text class="cls-3" transform="translate(105.32 63.47)"><tspan x="0" y="0">ネクサス熱海サッカースクール</tspan></text>
</svg>